<svg width="49" height="49" viewBox="0 0 49 49" fill="none" xmlns="http://www.w3.org/2000/svg">
<g id="ArrowUp">
<path id="Vector" d="M9.67912 22.311C9.81843 22.4504 9.98387 22.5611 10.166 22.6366C10.3481 22.712 10.5433 22.7509 10.7404 22.7509C10.9375 22.7509 11.1327 22.712 11.3148 22.6366C11.4969 22.5611 11.6623 22.4504 11.8016 22.311L22.7404 11.3703L22.7404 40.7497C22.7404 41.1475 22.8984 41.5291 23.1797 41.8104C23.461 42.0917 23.8425 42.2497 24.2404 42.2497C24.6382 42.2497 25.0197 42.0917 25.301 41.8104C25.5823 41.5291 25.7404 41.1475 25.7404 40.7497L25.7404 11.3703L36.6791 22.311C36.9606 22.5924 37.3423 22.7506 37.7404 22.7506C38.1384 22.7506 38.5202 22.5924 38.8016 22.311C39.0831 22.0295 39.2412 21.6478 39.2412 21.2497C39.2412 20.8517 39.0831 20.4699 38.8016 20.1885L25.3016 6.68846C25.1623 6.549 24.9969 6.43836 24.8148 6.36287C24.6327 6.28739 24.4375 6.24853 24.2404 6.24853C24.0433 6.24853 23.8481 6.28739 23.666 6.36287C23.4839 6.43836 23.3184 6.549 23.1791 6.68846L9.67912 20.1885C9.53966 20.3278 9.42902 20.4932 9.35353 20.6753C9.27805 20.8574 9.2392 21.0526 9.2392 21.2497C9.2392 21.4468 9.27805 21.642 9.35353 21.8241C9.42902 22.0062 9.53966 22.1717 9.67912 22.311Z" fill="white"/>
</g>
</svg>
