<svg width="24" height="25" viewBox="0 0 24 25" fill="none" xmlns="http://www.w3.org/2000/svg">
<g clip-path="url(#clip0_26_768)">
<path d="M22.2234 0.590088H1.77187C0.792187 0.590088 0 1.36353 0 2.31978V22.8557C0 23.812 0.792187 24.5901 1.77187 24.5901H22.2234C23.2031 24.5901 24 23.812 24 22.8604V2.31978C24 1.36353 23.2031 0.590088 22.2234 0.590088ZM7.12031 21.0416H3.55781V9.5854H7.12031V21.0416ZM5.33906 8.02446C4.19531 8.02446 3.27188 7.10103 3.27188 5.96196C3.27188 4.8229 4.19531 3.89946 5.33906 3.89946C6.47813 3.89946 7.40156 4.8229 7.40156 5.96196C7.40156 7.09634 6.47813 8.02446 5.33906 8.02446ZM20.4516 21.0416H16.8937V15.4729C16.8937 14.1463 16.8703 12.4354 15.0422 12.4354C13.1906 12.4354 12.9094 13.8838 12.9094 15.3792V21.0416H9.35625V9.5854H12.7687V11.151H12.8156C13.2891 10.251 14.4516 9.29946 16.1813 9.29946C19.7859 9.29946 20.4516 11.6713 20.4516 14.7557V21.0416Z" fill="#15AA7A"/>
</g>
<defs>
<clipPath id="clip0_26_768">
<rect width="24" height="24" fill="white" transform="translate(0 0.590088)"/>
</clipPath>
</defs>
</svg>
