<svg width="24" height="25" viewBox="0 0 24 25" fill="none" xmlns="http://www.w3.org/2000/svg">
<path d="M14.4414 6.24882C14.6495 7.13101 15.4417 7.78819 16.3877 7.78819C17.492 7.78819 18.3873 6.89288 18.3873 5.78851C18.3873 4.68413 17.492 3.78882 16.3877 3.78882C15.422 3.78882 14.6167 4.47319 14.4292 5.38351C12.812 5.55694 11.5492 6.92851 11.5492 8.59069C11.5492 8.59444 11.5492 8.59726 11.5492 8.60101C9.79047 8.67507 8.18453 9.17569 6.90953 9.96601C6.43609 9.59944 5.84172 9.38101 5.19672 9.38101C3.64891 9.38101 2.39453 10.6354 2.39453 12.1832C2.39453 13.3063 3.05453 14.2738 4.00797 14.721C4.10078 17.9741 7.64547 20.5907 12.0058 20.5907C16.3661 20.5907 19.9155 17.9713 20.0036 14.7154C20.9495 14.2654 21.6039 13.3007 21.6039 12.1841C21.6039 10.6363 20.3495 9.38194 18.8017 9.38194C18.1595 9.38194 17.568 9.59851 17.0955 9.96226C15.8092 9.16632 14.1855 8.66569 12.4089 8.59913C12.4089 8.59632 12.4089 8.59444 12.4089 8.59163C12.4089 7.40101 13.2939 6.41288 14.4414 6.25069V6.24882ZM6.79703 13.9616C6.84391 12.9454 7.51891 12.1654 8.30359 12.1654C9.08828 12.1654 9.68828 12.9894 9.64141 14.0057C9.59453 15.0219 9.00859 15.3913 8.22297 15.3913C7.43734 15.3913 6.75016 14.9779 6.79703 13.9616ZM15.7089 12.1654C16.4945 12.1654 17.1695 12.9454 17.2155 13.9616C17.2623 14.9779 16.5742 15.3913 15.7895 15.3913C15.0048 15.3913 14.418 15.0229 14.3711 14.0057C14.3242 12.9894 14.9233 12.1654 15.7089 12.1654ZM14.7752 16.3129C14.9223 16.3279 15.0161 16.4807 14.9589 16.6176C14.4761 17.7716 13.3361 18.5826 12.0058 18.5826C10.6755 18.5826 9.53641 17.7716 9.05266 16.6176C8.99547 16.4807 9.08922 16.3279 9.23641 16.3129C10.0989 16.2257 11.0317 16.1779 12.0058 16.1779C12.9798 16.1779 13.9117 16.2257 14.7752 16.3129Z" fill="#15AA7A"/>
</svg>
