<svg width="24" height="25" viewBox="0 0 24 25" fill="none" xmlns="http://www.w3.org/2000/svg">
<g clip-path="url(#clip0_25_834)">
<path fill-rule="evenodd" clip-rule="evenodd" d="M10.9358 0.669769H13.0559C15.9677 0.669769 17.6693 1.09745 19.1798 1.9073C20.6904 2.71715 21.8824 3.90009 22.6831 5.41063C23.493 6.92114 23.9207 8.62274 23.9207 11.5346V13.6456C23.9207 16.5575 23.493 18.2591 22.6831 19.7696C21.8733 21.2801 20.6904 22.4722 19.1798 23.2729C17.6693 24.0828 15.9677 24.5104 13.0559 24.5104H10.9448C8.033 24.5104 6.3314 24.0828 4.82089 23.2729C3.31039 22.4631 2.11836 21.2801 1.31761 19.7696C0.50775 18.2591 0.0800781 16.5575 0.0800781 13.6456V11.5346C0.0800781 8.62274 0.50775 6.92114 1.31761 5.41063C2.12746 3.90009 3.31039 2.70806 4.82089 1.9073C6.32233 1.09745 8.033 0.669769 10.9358 0.669769Z" fill="#15AA7A"/>
<path opacity="0.12" fill-rule="evenodd" clip-rule="evenodd" d="M23.9201 13.2974V13.6458C23.9201 16.5576 23.4925 18.2592 22.6826 19.7697C21.8728 21.2802 20.6898 22.4723 19.1793 23.2731C17.6688 24.0829 15.9672 24.5106 13.0554 24.5106H10.9443C8.56171 24.5106 6.98938 24.2242 5.66899 23.6764L3.49219 21.4349L23.9201 13.2974Z" fill="#001A33"/>
<path fill-rule="evenodd" clip-rule="evenodd" d="M3.73431 21.5129C4.8493 21.6362 6.24332 21.3182 7.23313 20.8377C11.5312 23.2134 18.2498 23.0999 22.3167 20.4972C22.4744 20.2606 22.6218 20.0146 22.7585 19.7595C23.5714 18.2435 24.0006 16.5357 24.0006 13.6133V11.4945C24.0006 8.57201 23.5714 6.86422 22.7585 5.3482C21.9549 3.83218 20.7585 2.64493 19.2425 1.83213C17.7265 1.01932 16.0187 0.590088 13.0962 0.590088H10.9683C8.4793 0.590088 6.86353 0.90341 5.50594 1.50157C5.43173 1.56803 5.35892 1.63561 5.28764 1.70434C1.30471 5.54383 1.00195 13.8666 4.37933 18.3876C4.3831 18.3943 4.38727 18.401 4.39186 18.4078C4.91242 19.175 4.41012 20.5175 3.62472 21.3029C3.49686 21.4216 3.54252 21.4947 3.73431 21.5129Z" fill="white"/>
<path d="M9.87059 8.75009H5.20259V9.75104H8.44196L5.24804 13.7093C5.14796 13.8549 5.0752 13.9914 5.0752 14.3008V14.5555H9.47929C9.69769 14.5555 9.87971 14.3736 9.87971 14.1552V13.6183H6.47651L9.47929 9.85112C9.5248 9.79654 9.60668 9.69646 9.64312 9.65096L9.66131 9.62364C9.8342 9.36886 9.87059 9.15046 9.87059 8.8866V8.75009Z" fill="#15AA7A"/>
<path d="M15.8123 14.5555H16.4765V8.75009H15.4756V14.2189C15.4756 14.4009 15.6212 14.5555 15.8123 14.5555Z" fill="#15AA7A"/>
<path d="M12.3911 10.0424C11.1353 10.0424 10.1162 11.0616 10.1162 12.3173C10.1162 13.573 11.1353 14.5922 12.3911 14.5922C13.6468 14.5922 14.6659 13.573 14.6659 12.3173C14.6751 11.0616 13.6559 10.0424 12.3911 10.0424ZM12.3911 13.6549C11.654 13.6549 11.0535 13.0543 11.0535 12.3173C11.0535 11.5803 11.654 10.9797 12.3911 10.9797C13.1281 10.9797 13.7287 11.5803 13.7287 12.3173C13.7287 13.0543 13.1372 13.6549 12.3911 13.6549Z" fill="#15AA7A"/>
<path d="M19.4337 10.0059C18.1688 10.0059 17.1406 11.0341 17.1406 12.2989C17.1406 13.5638 18.1688 14.592 19.4337 14.592C20.6985 14.592 21.7267 13.5638 21.7267 12.2989C21.7267 11.0341 20.6985 10.0059 19.4337 10.0059ZM19.4337 13.6548C18.6875 13.6548 18.0869 13.0542 18.0869 12.308C18.0869 11.5619 18.6875 10.9613 19.4337 10.9613C20.1798 10.9613 20.7804 11.5619 20.7804 12.308C20.7804 13.0542 20.1798 13.6548 19.4337 13.6548Z" fill="#15AA7A"/>
<path d="M14.1386 14.5554H14.6755V10.1694H13.7383V14.1642C13.7383 14.3734 13.9202 14.5554 14.1386 14.5554Z" fill="#15AA7A"/>
</g>
<defs>
<clipPath id="clip0_25_834">
<rect width="24" height="24" fill="white" transform="translate(0 0.590088)"/>
</clipPath>
</defs>
</svg>
